<svg xmlns="http://www.w3.org/2000/svg" xmlns:xlink="http://www.w3.org/1999/xlink" viewBox="0 0 372.13 258.15" version="1.0"><defs><linearGradient id="prefix__a"><stop offset="0" stop-opacity=".526"/><stop offset="1" stop-color="#edbad6" stop-opacity="0"/></linearGradient><linearGradient id="prefix__b"><stop offset="0" stop-color="#a9bf1f"/><stop offset="1" stop-color="#a9bf1f" stop-opacity="0"/></linearGradient><linearGradient id="prefix__c"><stop offset="0"/><stop offset="1" stop-opacity="0"/></linearGradient><linearGradient id="prefix__d" y2="215.14" xlink:href="#prefix__a" gradientUnits="userSpaceOnUse" x2="452.88" y1="254.31" x1="431.52"/><linearGradient id="prefix__e" y2="192.8" xlink:href="#prefix__b" gradientUnits="userSpaceOnUse" x2="306.9" y1="192.8" x1="288.03"/><linearGradient id="prefix__f" y2="191.93" xlink:href="#prefix__b" gradientUnits="userSpaceOnUse" x2="276.65" y1="181.7" x1="264.12"/><linearGradient id="prefix__g" y2="190.62" xlink:href="#prefix__c" gradientUnits="userSpaceOnUse" x2="262.5" y1="190.62" x1="255.63"/><linearGradient id="prefix__h" y2="192.58" xlink:href="#prefix__c" gradientUnits="userSpaceOnUse" x2="304.29" y1="192.58" x1="296.32"/><linearGradient id="prefix__j" y2="150.49" gradientUnits="userSpaceOnUse" x2="258.06" y1="150.49" x1="225.09"><stop offset="0" stop-color="#edbad6"/><stop offset="1" stop-color="#edbad6" stop-opacity="0"/></linearGradient><linearGradient id="prefix__l" y2="148.19" gradientUnits="userSpaceOnUse" x2="329.95" y1="148.19" x1="306.33"><stop offset="0" stop-color="#edbad6"/><stop offset="1" stop-color="#edbad6" stop-opacity="0"/></linearGradient><linearGradient id="prefix__o" y2="218.34" xlink:href="#prefix__a" gradientUnits="userSpaceOnUse" x2="356.31" y1="218.34" x1="335.06"/><linearGradient id="prefix__p" y2="270.61" xlink:href="#prefix__a" gradientUnits="userSpaceOnUse" x2="409.45" y1="326.04" x1="423.71"/><linearGradient id="prefix__q" y2="277.26" xlink:href="#prefix__a" gradientUnits="userSpaceOnUse" x2="340.05" y1="277.26" x1="217.21"/><radialGradient id="prefix__i" gradientUnits="userSpaceOnUse" cy="150.49" cx="241.58" gradientTransform="matrix(1 0 0 1.3559 0 -53.566)" r="16.486"><stop offset="0"/><stop offset="1" stop-opacity="0"/></radialGradient><radialGradient id="prefix__k" gradientUnits="userSpaceOnUse" cy="148.19" cx="318.14" gradientTransform="matrix(1 0 0 1.6452 0 -95.614)" r="11.811"><stop offset="0"/><stop offset="1" stop-opacity="0"/></radialGradient><radialGradient id="prefix__m" gradientUnits="userSpaceOnUse" cy="219.25" cx="276.19" gradientTransform="matrix(.60766 -.43764 1.216 1.6884 -158.25 -30.063)" r="7.724"><stop offset="0" stop-color="#edbad6"/><stop offset="1" stop-color="#edbad6" stop-opacity="0"/></radialGradient><radialGradient id="prefix__n" gradientUnits="userSpaceOnUse" cy="242.43" cx="279.52" gradientTransform="matrix(1 0 0 .19379 0 195.45)" r="27.374"><stop offset="0"/><stop offset="1" stop-opacity="0"/></radialGradient><radialGradient id="prefix__r" xlink:href="#prefix__a" gradientUnits="userSpaceOnUse" cy="230.97" cx="476.54" gradientTransform="matrix(-1.0832 .25898 -.42071 -1.7596 1128.4 496.5)" r="31.555"/></defs><path d="M35 1.29c-9.74 13.13 1.96 35.43-.26 44.99-12.27 8.08-9.39 27.42-16.65 38.08C6.71 90.1 5.06 104.3.52 114.79c-.1 14.59.01 29.6 3.48 43.78 11.88 12.18 13.51 31.12 30.13 39.44 2.14 10.05 14.7-3.11 21.99 2.36 13.36 1.28-8.55-14.34 4.92-7.55 9.24 7.62 16.33-7.94 24.33 2.16 6.3-4.97 19.2.38 14.81-8.21 10.58-3.99 19.58-3.66 29.72.37 13.41 1.43 19.2-12.33 31.31-7.41 16.13 3.38 32.61 3.88 48.92 1.96 19.55 1.07 39.07-.62 58.61.79 14.85 1.74 28.27-1.41 40.32-10.2 9.78-5.47 15.41-16.41 26.66-19.86 7.68-5.47 33.37-2.68 18.6-14.17-11.57-8.46-15.23-21.37-22.74-33.04-12.34-17.65-26.34-35.37-46.57-44.31-10.95-3.53-28.12-12.46-33.17 1.42-13.19 7.84-23.73 18.52-35.41 28.54-10.6 8.78-24.82 12.97-32.15 25.25-8.32 15.03-8.79-11.93-1.81-16.86 3.58-13.19-5.26-27.6-14.64-35.86-5.28-7.77.77-26.91-15.41-20.36-7.95 3.05-21.95.12-10.8 9.58 3.45 11.35-5.72-8.08-7.99-10.43 3.09-11.19 9.61-23.03 3.51-34.56-5.04-14.39-20.51 2.24-25.4 9.67-13.24 3.76-31.5.35-46.28 5.76C57.85 12.59 50.61-3.23 35 1.29z" stroke="#000" fill="none"/><path d="M89.83 20.44c-1.31 3.17-3.08 6.31-3.09 9.84-.66 5.43-1.13 10.89-2.13 16.27 2.9.97 6.37 1.12 8.24 3.93 3.22 1.88 3.59 5.39 3.94 8.72.4 1.88 1.6 6.27 3.69 3.2 1.97-2.25 5.08-2.53 7.87-2.59 2.55.27 4.2 2.52 6.2 3.92 1.88 1.86 4.05-2.16 6.25-2.54 2.77-.98 5.9-3.23 8.84-1.45 2.25 1.22 4.54 2.46 6.63 4 2.42 2.02.64-2.36.8-3.7-.75-2.92-3.47-4.79-4.89-7.39-1.75-2.54-3.35-5.18-4.92-7.84 1.41-1.07 4.83-2.68 2.01-4.4-3.15-4.09-7.27-7.41-11.66-10.08-2.99-.6-5.33-2.96-4.82-6.18.33-2.72-.62-5.51-3.39-6.47-2.31-1.65-3.02 2.34-5.42 1.72-2.66-.09-5.25-1.27-7.92-.71-2.2.03-4.13 1.25-6.23 1.75z" fill-rule="evenodd" stroke="#000"/><path d="M404.76 229.79c-3.19 2.61-6.39 5.22-9.58 7.84-2.22 4.8 1.1 11.48 6.5 12.05 4.17-.61 5.74-5.79 9.97-6.24 6.95-2.12 14.27.31 20.41 3.6 4.57.84 4.58-5.08 5.96-7.9 2.51-3.71 4.99-7.47 6.75-11.6 1.69-3.44 5.45-4.85 9.07-4.73 3.7-.19 7.37.52 10.95 1.38 4.05-1.42 2.8-6.43 3.58-9.69.64-3.52-.39-7.34-3.24-9.62-2.49-2.46-6.52-4.63-9.89-2.58-3.39 2.76-7.27-1.38-10.93-.23-3.92 1.1-7.17 3.69-10.8 5.44-4.22 2.51-8.37 5.17-12.82 7.24-4.25 2.41-5.83 7.43-9.77 10.18-2.03 1.66-4.19 3.14-6.16 4.86z" fill-rule="evenodd" fill="url(#prefix__d)" transform="translate(-192.19 -126.66)"/><path d="M159.47 41.33c6.61-.24 16.53-.8 23.01-1.93 10.27-.49 20.77-.41 30.7-2.83 7.72 2.57 14.79 2.23 22.69 4.17 4.87 2.34 9.77 4.81 15.27 5.19 4.83.56 9.63 1.4 12.97 5.24 1.22 1.64 8.98 3.01 6.14 4.06-3.81.79-7.25-.52-10.13-2.23-3.9 4.07-6.93 9.21-11.48 12.51-6.47 2.98-12.85 6.5-17.47 12.06-4.22 4.63-9.53 7.94-14.52 11.6-6.76 6.23-13.73 12.26-21.6 17.08-4.02 2.54-8.15 5.14-9.76 9.89-1.68 2.1-3.86 8.63-5.2 7.83-.64-5.78-6.21-12.12-2.12-17.36 2.53-5.25 7.82-10.14 4.45-16.18-1.74-6.82-7.13-9.24-9.02-16.02-4.91-2.05-4.03-11.12-7.39-14.92-3.02-4.67-1.71-10.99-2.95-16.33l-.11-.96-3.48-.87zM35.87 202.36c7.35 5.94 10.85 15.29 17.76 21.16 8.92 8.42 19.45 14.05 31.02 17.82 12.38 2.15-11.74 10.8 2.62 8.54 14.56.33 30.81-5.12 44.01 1.77 13.34.17 27.59-2.44 40.03 3.99 19.7 6.68 39.57-5.85 59.38-1.36 12.29 3.75 22.8-5.4 34.93-5.82 13.24-2.11 28.41-3.23 38.3-13.3 14.19-6.77 29.13-12.3 37.75-26.7 8.02-7.94 21.18-11.32 25.68-22.12 11.27-6.71-2.62-32.55-8.54-42.25-4.57-14.44-7.11 1.69-17.95 6.5-11.16 2.81-19.73 10.22-27.31 18.46-12.28 7.04-25.76 15.13-40.54 13.07-25.69.09-51.35-3.82-76.99-1.05-14.92 1.02-29.59-2.56-44.38-3.95-6.02 7.86-19.73 11.22-28.59 6.8-7.59-5.86-23.48.09-22.5 7.88-8.94-.22-16.8 5.17-23.73-2.59-3.59 9.47-14.37-.02-18.19 2.62 10.46 14.63-15.04 2.07-20.72 9.86l-2.04.67z" fill-rule="evenodd" stroke="#000"/><path d="M290.29 191.49c-.57 1.62-1.19 3.21-1.74 4.84.1.81-.18 1.97.14 2.57 2.07.2 4.13.51 6.22.43 1.72.03 3.44-.02 5.15-.22.84-.18 1.87.04 2.59-.4.65-.61 1.3-1.23 1.69-2.05.57-.8.94-1.7 1.14-2.66.3-1.13.61-2.25.92-3.38-.64-.79-1.13-1.74-2.02-2.28-.93-.69-1.85-1.38-2.77-2.07-1.31.14-2.61.29-3.92.43-2.46 1.6-4.93 3.2-7.4 4.79z" fill-rule="evenodd" stroke="#000" fill="url(#prefix__e)" transform="translate(-192.19 -126.66)"/><path d="M266.79 198.46c-.61-2.23-1.15-4.48-1.82-6.68-.55-1.11-1.11-2.22-1.66-3.33-1.87-1.07-3.72-2.18-5.69-3.04-3.32-.03-6.65 0-9.98-.01.87 1.3 1.74 2.61 2.61 3.92-.43 1.3-.87 2.61-1.3 3.91 1.47 1.24 2.94 2.49 4.54 3.56.66.59 1.42.96 2.32.93 1.61.21 3.23.37 4.86.3 1.55.01 3.12-.09 4.65.22.49.07.98.15 1.47.22z" fill-rule="evenodd" stroke="#000" fill="url(#prefix__f)" transform="translate(-192.19 -126.66)"/><path d="M65.03 59.83l-3.05 3.04 1.31 4.36 2.17 1.3 2.18-2.61.43-2.18-.87-2.61-2.17-1.3z" fill-rule="evenodd" stroke="#000" fill="#f5f6f2"/><path d="M257.22 186.27l-3.05 3.05 1.31 4.35 2.17 1.3 2.18-2.61.43-2.17-.87-2.62-2.17-1.3z" fill-rule="evenodd" stroke="#000" stroke-width=".5" fill="url(#prefix__g)" transform="translate(-192.19 -126.66)"/><path d="M103.98 61.79l-2.18 3.91 1.31 3.92 3.48.43 1.74-3.48v-2.61l-1.74-1.3-2.61-.87z" fill-rule="evenodd" stroke="#000" fill="#f5f6f2"/><path d="M296.39 188.45l-2.18 3.91 1.31 3.92 3.48.43 1.74-3.48v-2.61l-1.74-1.3-2.61-.87z" fill-rule="evenodd" stroke="#000" stroke-width=".5" fill="url(#prefix__h)" transform="translate(-192.19 -126.66)"/><path d="M229.36 172.34c3.47-3.82 7.7-6.88 12.3-9.19 1.79-1 3.71-1.88 5.04-3.48 1.86-1.73 4.41-2.24 6.8-2.78 1.88-1.14 5.03-2.29 3.78-4.93.07-2.22-1.43-3.83-2.9-5.27-3.79-4.08-7.4-8.34-11.53-12.08-2.81-2.11-5.75-4.08-8.98-5.49-1.74-1.31-4.93.27-5.53 2.03-.4 2.69-.67 5.44-2.09 7.84-1.33 2.16-.3 4.56.08 6.82.55 3.04 1.58 6.02 1.74 9.11.06 3.96-.37 7.99.62 11.87.32 1.84.53 3.69.67 5.55z" fill-rule="evenodd" stroke="url(#prefix__i)" fill="url(#prefix__j)" transform="translate(-192.19 -126.66)"/><path d="M306.83 147.53c.51-1.71 1.02-3.42 1.23-5.2 0-.72.81-1 1.21-1.51 3.97-3.71 7.95-7.42 11.92-11.13 1.02-.14 2.04-.29 3.05-.44 1.45 2.18 2.9 4.36 4.35 6.53.41 2.92.66 5.86.86 8.8-.31 2.93-.54 5.87-.91 8.79-.88 3.04-1.7 6.1-2.63 9.13l-2.1 4.62c-1.92-2.34-3.8-4.71-5.73-7.02-2.93-2.33-5.94-4.54-8.7-7.07-.46-.38-.96-.75-1.06-1.39-.49-1.37-.99-2.74-1.49-4.11z" fill-rule="evenodd" stroke="url(#prefix__k)" fill="url(#prefix__l)" transform="translate(-192.19 -126.66)"/><path d="M268.97 211.51c.14 1.45.29 2.9.43 4.35 1.04.87 2.32 1.6 2.85 2.91 1.61 2.39 2.08 5.32 2.33 8.14 1 .35 2.37-.52 2.13-1.65-.1-.87-.62-1.87-.03-2.67.75-.66 1.62-1.2 2.26-1.98.57-.69 1.02-1.5 1.79-2 .77-.64 1.89-.92 2.28-1.92.43-.92.29-1.95.31-2.92.25-.84.07-2.6-1.2-1.91-.62.42-1.27.77-1.99 1-1.42.55-2.96.63-4.46.75-.8.05-1.56-.23-2.26-.58-1.46-.56-2.96-1.01-4.44-1.52z" fill-rule="evenodd" stroke="#000" stroke-width=".5" fill="url(#prefix__m)" transform="translate(-192.19 -126.66)"/><path d="M57.63 96.17c1.17 1.59 3.45 4.29 4.79 6.96 2.28 4.57 5.42 6.09 10.01 6.09 3.35 0 5.13-2.34 6.96-4.78 3.44-4.59 3.96-5.75 6.96-1.74 1.41 1.88 6.3 2.49 8.27 3.48 2.42 1.21 5.64-1.3 7.4-2.18 2.53-1.26 5-2.12 7.4-3.92.91-.68 1.94-1.5 2.61-2.17" stroke="#000" stroke-width=".5" fill="none"/><path d="M115.95 90.07c1.4-.82 3.13-.62 4.7-.59 4.2.31 8.36 1.12 12.44 2.18 3.38.97 6.62 2.4 10.04 3.27 1.27.59 2.19 1.71 3.28 2.54M118.56 84.85c3.92 1.04 7.94 1.84 12.02 1.76 3.47.13 6.94.67 10.26 1.7 2.01.7 3.87 1.79 5.57 3.07M120.3 94.43c5.14 1.28 14.62 8.01 20.46 12.18 3.91 2.8 7.53 5.87 11.31 8.71M56.32 89.2c2.68 2.01-6.7.32-10.01.87-3.79.64-7.48.67-11.31 1.31-3.58.6-7.3 1.02-10.88 1.74-3.94.79-7.36 1.28-10.88 3.05-2.78 1.39.26-1.13-3.05 2.17M55.89 92.69c-2.63 1.31-7.47.56-10.45 1.3-3.49.87-6.61.89-10.01 1.74-.58.15-1.16.29-1.74.44-3.31.83-7.07 1.5-10.44 2.17-3.76.75-6.18 1.79-9.58 3.49-.96.48-1.13.56-1.74.87M54.15 96.6c-3.22 1.48-7.06.74-10.14 2.63-4.1 1.73-8.62 2.08-12.77 3.64-3.63 1.72-6.44 4.66-9.5 7.17-2.41 1.46-5.33 1.87-7.63 3.54" stroke-opacity=".286" stroke="#000" fill="none"/><path d="M252.86 239.37c-2.06 1.54 11.28 5.65 12.63 5.65 3.1 0 7.33 1.12 10.44 1.75 2.75.54 5.91.69 8.71 0 2.84-.72 5.26-1.77 7.83-3.05 2.53-1.27 5.11-1.96 7.83-3.05 2.12-.85 4.16-2.07 6.1-3.04" stroke="url(#prefix__n)" fill="none" transform="translate(-192.19 -126.66)"/><path d="M335.56 186.7c2.7-1.08.16 5.88.87 8.71.62 2.49 2.83 4.94 4.35 6.96 1.89 2.53 2.29 5.56 3.92 8.27.97 1.62.84 4.67 1.3 6.53.57 2.27.32 4.77.87 6.96.7 2.8.48 5.31 1.74 7.84 1.31 2.61 1.44 5.31 2.18 8.27.65 2.6.66 5.67 1.31 8.27 1.11 4.47 3.48-1.71 3.48-3.49 0-2.82-.44-5.55-.44-8.27 0-2.19-.77-5.68-1.3-7.83-.56-2.22.87-5.34.87-7.83 0-2.28.34-5.72.87-7.84.66-2.66-.28-5.91-.87-8.27-.75-2.99-3.56-5.49-5.23-8.27-1.56-2.59-3.27-4.73-5.65-6.52-2.31-1.73-5.55-2.58-8.27-3.49z" fill-rule="evenodd" fill="url(#prefix__o)" transform="translate(-192.19 -126.66)"/><path d="M360.8 302.04c-.94-6.52 3.31-13.55 9.8-15.19 6.03-3.72 7.54-11.24 12.13-16.24 2.54 2.17 2.51 10.29 7.8 6.31 5.21-4.36 12.87.24 11.16 6.89-1.24 6.43 3.92 9.95 9.63 9.91 4.87 2.89 9.94 6.56 16 4.86 7.15-.56 13.68-3.75 17.5-10.01 3.53-3.86 8.26-6.31 12.35-9.53 3.82-2.41 8.44-5.22 13.08-4.13 5.65 2.13 10.32 7.98 16.9 6.76 6.27 2.07 11.32 7.4 13.2 13.71-.69 6.69-9 7.2-14 9.22-11.77 2.76-23.98 4.9-36.07 3.07-10.81-1.62-21.84.07-32.6-2.09-7.95-.78-15.83.95-23.69 1.71-8.19-.13-16.62-.53-24.22-3.85-2.89-.92-5.92-1.53-8.97-1.4z" fill-rule="evenodd" fill="url(#prefix__p)" transform="translate(-192.19 -126.66)"/><path d="M223.7 249.38c0 5.18 5.52 8.84 7.11 13.75 3.81 4.79 8.85 8.86 14.82 10.56 6.01 1.35 4.08 10.18 10.51 11.01 4.48.91 7.12-6.94 11.44-1.76 4.2 4.09 9.83 6.57 15.74 6.39 4.57.41 7.16 6.18 12.19 5.88 6.79.53 13.66.49 20.43-.11 5.65-1.26 9.98-5.82 15.1-7.8 4.34 2 7.26 6.84 8.22 11.45 2.14 3.98-.28 6.79-4.66 6.3-4.83.82-7.59-4.37-12.26-4.28-7.23-.28-13.92 3.69-21.2 2.99-5.04.03-10.04-1.31-15.03-1.17-5.25.89-11.8 3.13-15.99-1.36-5.2-3.92-11.63-1.46-17.24-.12-6.43 2.53-11.1-2.46-15.96-5.56-4.01-.74-10.86 1.84-10.62-4.94.59-5.94 2.04-12.38-1.56-17.8-2.98-5.26-5.36-10.99-7.52-16.68-.18-3.73 3.96-5.05 6.48-6.75z" fill-rule="evenodd" fill="url(#prefix__q)" transform="translate(-192.19 -126.66)"/><path d="M465.25 185.83c.45 3.74-1.61 9.61 3.93 10.3 5.36 2.45 10.75 4.82 16.13 7.19 4.16 2.27 6.83 6.34 9.78 9.91 2.62 3.35 4.26 7.3 5.81 11.21 2.81 5.17 7.63 9.39 8.62 15.42 2.54 4.18-.03 8.84-1.43 12.88-1.14 4.65-.34 9.7 2.42 13.62 2.24 4.41 8.41 2.88 10.07-1.15 2.83-2.92 2.96-7.11 3.14-10.91-.12-4.21 4.81-5.94 4.61-10.08.1-4.48-3.56-7.62-6.98-9.85-4.07-2.32-5.87-6.62-8.52-10.2-3.49-4.12-8.33-7.16-10.66-12.2-2.38-4.07-5.7-7.55-9.77-9.96-5.2-4.1-10.42-8.3-16.6-10.86-3.54-1.7-7.37-2.96-10.55-5.32z" fill-rule="evenodd" fill="url(#prefix__r)" transform="translate(-192.19 -126.66)"/></svg>